<?xml version="1.0" encoding="UTF-8"?>
<svg width="38px" height="43px" viewBox="0 0 38 43" version="1.1" xmlns="http://www.w3.org/2000/svg" xmlns:xlink="http://www.w3.org/1999/xlink">
    <!-- Generator: Sketch 47.1 (45422) - http://www.bohemiancoding.com/sketch -->
    <title>Android</title>
    <desc>Created with Sketch.</desc>
    <defs></defs>
    <g id="Page-1" stroke="none" stroke-width="1" fill="none" fill-rule="evenodd">
        <g id="Manage-App-Analytics" transform="translate(-1127.000000, -929.000000)" fill="#CBD4DD">
            <g id="Full" transform="translate(-1.000000, 0.000000)">
                <g id="Row-2" transform="translate(260.000000, 811.000000)">
                    <g id="Android-Downloads" transform="translate(718.000000, 0.000000)">
                        <g id="Money-Icon-Copy" transform="translate(41.000000, 115.000000)">
                            <path d="M133.18158,11.6008105 C132.465341,11.6008105 131.885529,11.0420702 131.885529,10.3518615 C131.885529,9.6616529 132.465341,9.10544081 133.18158,9.10544081 C133.897818,9.10544081 134.47763,9.6616529 134.47763,10.3518615 C134.47763,11.0420702 133.897818,11.6008105 133.18158,11.6008105 L133.18158,11.6008105 Z M122.81842,11.6008105 C122.102182,11.6008105 121.52237,11.0420702 121.52237,10.3518615 C121.52237,9.6616529 122.102182,9.10544081 122.81842,9.10544081 C123.534659,9.10544081 124.114471,9.6616529 124.114471,10.3518615 C124.114471,11.0420702 123.534659,11.6008105 122.81842,11.6008105 L122.81842,11.6008105 Z M133.947666,6.59995817 C137.610191,8.24584031 140.089478,11.3631562 140.089478,14.9304983 L115.910522,14.9304983 C115.910522,11.3631562 118.389809,8.24584031 122.054957,6.59995817 L121.569594,5.89710835 L121.086854,5.20437148 L120.011185,3.64697763 C119.880006,3.45483163 119.935101,3.19695148 120.13187,3.07053964 C120.331262,2.9441278 120.598868,2.99469254 120.732671,3.18683853 L121.887048,4.8554748 L122.372411,5.55579639 L122.863021,6.26875916 C124.424054,5.68473646 126.166114,5.35859392 128,5.35859392 C129.836509,5.35859392 131.575946,5.68473646 133.136979,6.26875916 L133.630213,5.55579639 L135.272577,3.18683853 C135.401132,2.99469254 135.671362,2.94159957 135.86813,3.07053964 C136.067523,3.19695148 136.122618,3.45483163 135.988815,3.64697763 L134.913146,5.20437148 L134.430406,5.89710835 L133.947666,6.59995817 Z M116.096796,16.5940781 L140.089478,16.5940781 L140.089478,34.9035688 C140.089478,36.357305 138.866888,37.5405198 137.355703,37.5405198 L135.380144,37.5405198 C135.448357,37.7604764 135.487711,37.9905459 135.487711,38.2332566 L135.487711,43.5046303 C135.487711,44.8825193 134.325463,46 132.892985,46 C131.463132,46 130.303507,44.8825193 130.303507,43.5046303 L130.303507,38.2332566 C130.303507,37.9905459 130.340238,37.7604764 130.405827,37.5405198 L125.594173,37.5405198 C125.659762,37.7604764 125.699116,37.9905459 125.699116,38.2332566 L125.699116,43.5046303 C125.699116,44.8825193 124.536868,46 123.107015,46 C121.677161,46 120.514913,44.8825193 120.514913,43.5046303 L120.514913,38.2332566 C120.514913,37.9905459 120.551643,37.7604764 120.619856,37.5405198 L118.646921,37.5405198 C117.135736,37.5405198 115.910522,36.357305 115.910522,34.9035688 L115.910522,16.5940781 L116.096796,16.5940781 Z M111.592102,16.5940781 C113.021955,16.5940781 114.18158,17.7115588 114.18158,19.0894478 L114.18158,29.7712482 C114.18158,31.1491372 113.021955,32.2666179 111.592102,32.2666179 C110.159624,32.2666179 109,31.1491372 109,29.7712482 L109,19.0894478 C109,17.7115588 110.159624,16.5940781 111.592102,16.5940781 Z M144.410522,16.5940781 C145.840376,16.5940781 147,17.7115588 147,19.0894478 L147,29.7712482 C147,31.1491372 145.840376,32.2666179 144.410522,32.2666179 C142.978045,32.2666179 141.81842,31.1491372 141.81842,29.7712482 L141.81842,19.0894478 C141.81842,17.7115588 142.978045,16.5940781 144.410522,16.5940781 Z" id="Android"></path>
                        </g>
                    </g>
                </g>
            </g>
        </g>
    </g>
</svg>