<?xml version="1.0" encoding="UTF-8"?>
<svg width="37px" height="43px" viewBox="0 0 37 43" version="1.1" xmlns="http://www.w3.org/2000/svg" xmlns:xlink="http://www.w3.org/1999/xlink">
    <!-- Generator: Sketch 47.1 (45422) - http://www.bohemiancoding.com/sketch -->
    <title>Apple</title>
    <desc>Created with Sketch.</desc>
    <defs></defs>
    <g id="Page-1" stroke="none" stroke-width="1" fill="none" fill-rule="evenodd">
        <g id="Manage-App-Analytics" transform="translate(-769.000000, -929.000000)" fill="#CBD4DD">
            <g id="Full" transform="translate(-1.000000, 0.000000)">
                <g id="Row-2" transform="translate(260.000000, 811.000000)">
                    <g id="iOS-Downloads" transform="translate(359.000000, 0.000000)">
                        <g id="Money-Icon" transform="translate(41.000000, 115.000000)">
                            <path d="M134.523542,9.98078035 C135.936257,8.17048019 137.007187,5.6117878 136.61983,3 C134.310875,3.15928619 131.61203,4.62573045 130.037283,6.53716469 C128.601781,8.26908593 127.421986,10.8454768 127.882764,13.3460171 C130.406918,13.424396 133.012087,11.9225548 134.523542,9.98078035 L134.523542,9.98078035 Z M147,34.5487784 C145.989832,36.7838417 145.503736,37.7825408 144.202417,39.7622406 C142.387154,42.5257295 139.827555,45.9668168 136.652742,45.9921004 C133.834906,46.0224406 133.108294,44.159045 129.282821,44.1818002 C125.457349,44.202027 124.659848,46.0274973 121.836948,45.9996854 C118.664667,45.9718735 116.239251,42.8670571 114.423987,40.1035681 C109.345299,32.3819806 108.8111,23.3178381 111.942873,18.4962705 C114.170812,15.0728816 117.68488,13.0704267 120.98628,13.0704267 C124.345911,13.0704267 126.459921,14.9110671 129.242313,14.9110671 C131.941158,14.9110671 133.584263,13.06537 137.470497,13.06537 C140.412389,13.06537 143.528972,14.6658169 145.746784,17.4267775 C138.475602,21.4064038 139.652865,31.7751761 147,34.5487784 L147,34.5487784 Z" id="Apple"></path>
                        </g>
                    </g>
                </g>
            </g>
        </g>
    </g>
</svg>