<?xml version="1.0" encoding="UTF-8"?>
<svg width="70px" height="70px" viewBox="0 0 70 70" version="1.1" xmlns="http://www.w3.org/2000/svg" xmlns:xlink="http://www.w3.org/1999/xlink">
    <!-- Generator: Sketch 46.2 (44496) - http://www.bohemiancoding.com/sketch -->
    <title>graph-pie</title>
    <desc>Created with Sketch.</desc>
    <defs></defs>
    <g id="Page-1" stroke="none" stroke-width="1" fill="none" fill-rule="evenodd">
        <g id="Dashboard-Empty-States" transform="translate(-393.000000, -896.000000)" fill="#C8D2DC">
            <g id="Full">
                <g id="Content" transform="translate(259.000000, 185.000000)">
                    <g id="Activity" transform="translate(0.000000, 602.000000)">
                        <g id="Platforms">
                            <g id="Empty-State" transform="translate(5.000000, 109.000000)">
                                <path d="M140.009783,41.7747826 C141.606848,54.2127174 152.80913,63.8795652 166.347283,63.8795652 C180.977283,63.8795652 192.879565,51.9765217 192.879565,37.3465217 C192.879565,24.0541304 183.036957,12.6677174 170.775543,11.0196739 L170.775543,38.7145652 C170.775543,40.4044565 169.405217,41.7747826 167.715326,41.7747826 L140.009783,41.7747826 Z M166.347283,70 C148.342826,70 133.694565,55.965 133.694565,38.7145652 C133.694565,37.0246739 135.064891,35.6543478 136.754783,35.6543478 L164.655109,35.6543478 L164.655109,7.75402174 C164.655109,6.06413043 166.025435,4.69380435 167.715326,4.69380435 C184.673587,4.69380435 199,19.6471739 199,37.3465217 C199,55.3517391 184.351739,70 166.347283,70 L166.347283,70 Z M134.531522,22.9242391 L151.925,22.9242391 L151.925,5.53152174 C142.898043,6.72913043 135.72913,13.8972826 134.531522,22.9242391 L134.531522,22.9242391 Z M154.6025,28.2792391 L131.6775,28.2792391 C130.19837,28.2792391 129,27.0808696 129,25.6017391 C129,11.4845652 140.485326,0 154.6025,0 C156.08163,0 157.28,1.19836957 157.28,2.6775 L157.28,25.6017391 C157.28,27.0808696 156.08163,28.2792391 154.6025,28.2792391 L154.6025,28.2792391 Z" id="graph-pie"></path>
                            </g>
                        </g>
                    </g>
                </g>
            </g>
        </g>
    </g>
</svg>